<?xml version="1.0" encoding="UTF-8"?>
<svg width="800" height="800" viewBox="0 0 800 800" fill="none" xmlns="http://www.w3.org/2000/svg">
  <!-- Background shape -->
  <circle cx="400" cy="400" r="380" fill="url(#gradient1)" fill-opacity="0.1"/>
  
  <!-- Main building shape -->
  <path d="M250 200 L400 100 L550 200 L550 600 L250 600 Z" fill="url(#gradient2)" stroke="#ffffff" stroke-width="4"/>
  
  <!-- Windows -->
  <rect x="300" y="250" width="60" height="80" rx="4" fill="#ffffff" fill-opacity="0.9"/>
  <rect x="440" y="250" width="60" height="80" rx="4" fill="#ffffff" fill-opacity="0.9"/>
  <rect x="300" y="370" width="60" height="80" rx="4" fill="#ffffff" fill-opacity="0.9"/>
  <rect x="440" y="370" width="60" height="80" rx="4" fill="#ffffff" fill-opacity="0.9"/>
  
  <!-- Door -->
  <path d="M370 500 L430 500 L430 600 L370 600 Z" fill="#ffffff" fill-opacity="0.9"/>
  
  <!-- Chat bubble -->
  <circle cx="550" cy="250" r="80" fill="url(#gradient3)" stroke="#ffffff" stroke-width="4"/>
  <path d="M500 250 L540 250 M500 270 L530 270" stroke="#ffffff" stroke-width="4" stroke-linecap="round"/>
  
  <!-- Decorative elements -->
  <circle cx="200" cy="350" r="20" fill="#60A5FA" fill-opacity="0.5"/>
  <circle cx="600" cy="450" r="30" fill="#60A5FA" fill-opacity="0.5"/>
  
  <!-- Gradients -->
  <defs>
    <linearGradient id="gradient1" x1="0" y1="0" x2="800" y2="800" gradientUnits="userSpaceOnUse">
      <stop offset="0%" stop-color="#60A5FA"/>
      <stop offset="100%" stop-color="#3B82F6"/>
    </linearGradient>
    
    <linearGradient id="gradient2" x1="250" y1="100" x2="550" y2="600" gradientUnits="userSpaceOnUse">
      <stop offset="0%" stop-color="#93C5FD"/>
      <stop offset="100%" stop-color="#60A5FA"/>
    </linearGradient>
    
    <linearGradient id="gradient3" x1="470" y1="170" x2="630" y2="330" gradientUnits="userSpaceOnUse">
      <stop offset="0%" stop-color="#93C5FD"/>
      <stop offset="100%" stop-color="#60A5FA"/>
    </linearGradient>
  </defs>
</svg>
