<?xml version="1.0" encoding="UTF-8"?>
<svg width="100" height="100" viewBox="0 0 100 100" fill="none" xmlns="http://www.w3.org/2000/svg">
  <!-- Small circles pattern -->
  <circle cx="10" cy="10" r="2" fill="#60A5FA" fill-opacity="0.2"/>
  <circle cx="30" cy="10" r="2" fill="#60A5FA" fill-opacity="0.2"/>
  <circle cx="50" cy="10" r="2" fill="#60A5FA" fill-opacity="0.2"/>
  <circle cx="70" cy="10" r="2" fill="#60A5FA" fill-opacity="0.2"/>
  <circle cx="90" cy="10" r="2" fill="#60A5FA" fill-opacity="0.2"/>
  
  <circle cx="10" cy="30" r="2" fill="#60A5FA" fill-opacity="0.2"/>
  <circle cx="30" cy="30" r="2" fill="#60A5FA" fill-opacity="0.2"/>
  <circle cx="50" cy="30" r="2" fill="#60A5FA" fill-opacity="0.2"/>
  <circle cx="70" cy="30" r="2" fill="#60A5FA" fill-opacity="0.2"/>
  <circle cx="90" cy="30" r="2" fill="#60A5FA" fill-opacity="0.2"/>
  
  <circle cx="10" cy="50" r="2" fill="#60A5FA" fill-opacity="0.2"/>
  <circle cx="30" cy="50" r="2" fill="#60A5FA" fill-opacity="0.2"/>
  <circle cx="50" cy="50" r="2" fill="#60A5FA" fill-opacity="0.2"/>
  <circle cx="70" cy="50" r="2" fill="#60A5FA" fill-opacity="0.2"/>
  <circle cx="90" cy="50" r="2" fill="#60A5FA" fill-opacity="0.2"/>
  
  <circle cx="10" cy="70" r="2" fill="#60A5FA" fill-opacity="0.2"/>
  <circle cx="30" cy="70" r="2" fill="#60A5FA" fill-opacity="0.2"/>
  <circle cx="50" cy="70" r="2" fill="#60A5FA" fill-opacity="0.2"/>
  <circle cx="70" cy="70" r="2" fill="#60A5FA" fill-opacity="0.2"/>
  <circle cx="90" cy="70" r="2" fill="#60A5FA" fill-opacity="0.2"/>
  
  <circle cx="10" cy="90" r="2" fill="#60A5FA" fill-opacity="0.2"/>
  <circle cx="30" cy="90" r="2" fill="#60A5FA" fill-opacity="0.2"/>
  <circle cx="50" cy="90" r="2" fill="#60A5FA" fill-opacity="0.2"/>
  <circle cx="70" cy="90" r="2" fill="#60A5FA" fill-opacity="0.2"/>
  <circle cx="90" cy="90" r="2" fill="#60A5FA" fill-opacity="0.2"/>
  
  <!-- Connecting lines -->
  <path d="M10 12 L30 28" stroke="#60A5FA" stroke-width="0.5" stroke-opacity="0.1"/>
  <path d="M30 32 L50 48" stroke="#60A5FA" stroke-width="0.5" stroke-opacity="0.1"/>
  <path d="M50 52 L70 68" stroke="#60A5FA" stroke-width="0.5" stroke-opacity="0.1"/>
  <path d="M70 72 L90 88" stroke="#60A5FA" stroke-width="0.5" stroke-opacity="0.1"/>
  
  <!-- Large decorative circles -->
  <circle cx="50" cy="50" r="30" stroke="#3B82F6" stroke-width="0.5" stroke-opacity="0.05" fill="none"/>
  <circle cx="50" cy="50" r="20" stroke="#3B82F6" stroke-width="0.5" stroke-opacity="0.05" fill="none"/>
  
  <!-- Diagonal lines -->
  <line x1="0" y1="0" x2="100" y2="100" stroke="#3B82F6" stroke-width="0.5" stroke-opacity="0.05"/>
  <line x1="100" y1="0" x2="0" y2="100" stroke="#3B82F6" stroke-width="0.5" stroke-opacity="0.05"/>
</svg>
